. 
  
http://www.torrentday.com/        :     The Hottest Private Tracker On The Net!!!


               www . TorrentDay . Com 
(((((((((((((= Enjoy No RAR releases =))))))))))))))))))))


...................................NFO:....................................

.[img]http://img412.imageshack.us/img412/5357/convictionblurayart.jpg[/img]

Conviction 2010 BDRip XVID AC3 HQ Hive-CM8



[b]Thx Hive

CM8 Doing It Right The First Time :D

Why download a touched up rip of a rip BRrip
Get the real deal BDRip
Enjoy

Source Bluray

Video: 720x384 @bitrate 1600 2pass
Audio: DTS to AC3 5.1 @448
Sample: yes included
Subs: yes in srt /subs[/b]


[url]http://www.imdb.com/title/tt1244754/[/url]


General
Complete name                    : Conviction.2010.BDRip.XVID.AC3.HQ.Hive-CM8.avi
Format                           : AVI
Format/Info                      : Audio Video Interleave
File size                        : 1.54 GiB
Duration                         : 1h 47mn
Overall bit rate                 : 2 057 Kbps
Writing application              : Nandub v1.0rc2
Writing library                  : Nandub build 1853/release

Video
ID                               : 0
Format                           : MPEG-4 Visual
Format profile                   : Advanced Simple@L5
Format settings, BVOP            : Yes
Format settings, QPel            : Yes
Format settings, GMC             : No warppoints
Format settings, Matrix          : Default (H.263)
Muxing mode                      : Packed bitstream
Codec ID                         : XVID
Codec ID/Hint                    : XviD
Duration                         : 1h 47mn
Bit rate                         : 1 599 Kbps
Width                            : 720 pixels
Height                           : 384 pixels
Display aspect ratio             : 1.850
Frame rate                       : 23.976 fps
Color space                      : YUV
Chroma subsampling               : 4:2:0
Bit depth                        : 8 bits
Scan type                        : Progressive
Bits/(Pixel*Frame)               : 0.241
Stream size                      : 1.20 GiB (78%)
Writing library                  : XviD 1.2.1 (UTC 2008-12-04)

Audio
ID                               : 1
Format                           : AC-3
Format/Info                      : Audio Coding 3
Mode extension                   : CM (complete main)
Codec ID                         : 2000
Duration                         : 1h 47mn
Bit rate mode                    : Constant
Bit rate                         : 448 Kbps
Channel(s)                       : 6 channels
Channel positions                : Front: L C R, Side: L R, LFE
Sampling rate                    : 48.0 KHz
Bit depth                        : 16 bits
Stream size                      : 343 MiB (22%)
Alignment                        : Split accross interleaves
Interleave, duration             : 42 ms (1.00 video frame)
Interleave, preload duration     : 500 ms




Hilary Swank ... Betty Anne Waters
Sam Rockwell ... Kenny Waters
Thomas D. Mahard ... Law Professor (as Thomas Mahard)
Owen Campbell ... Ben
Conor Donovan ... Richard
Laurie Brown ... Law Professor #2
John Pyper-Ferguson ... Aidan
Minnie Driver ... Abra Rice
Ele Bardha ... Don



A working mother puts herself through law school in an effort to represent 
her brother, who has been wrongfully convicted of murder and has exhausted his 
chances to appeal his conviction through public defenders. 



[img]http://img341.imageshack.us/img341/2489/ccocoocccooo.png[/img]
[img]http://img192.imageshack.us/img192/5226/ccooq.png[/img]
[img]http://img218.imageshack.us/img218/2842/ccoocccooo.png[/img]
[img]http://img822.imageshack.us/img822/1233/60261995.png[/img]
[img]http://img84.imageshack.us/img84/1079/cocccooo.png[/img]
[img]http://img510.imageshack.us/img510/4580/ccococccooo.png[/img]
[img]http://img808.imageshack.us/img808/4092/ccocococccooo.png[/img]
[img]http://img266.imageshack.us/img266/1572/coccoo.png[/img]






Greetz

iNK,LUSi,,MAGNET,CLASSiFiED,THC,LEGi0N,IMAGiNE,ViSiON,WBZ,FLAWL3SS,NOVA
Rapeseed,D2U,SAFC,goldadvance,MEMORY100,KaN1vE,Unevano,Pinnz,Wayne,Mr Hive
and all P2P groups 
Great Work Guys :D